<?xml version="1.0" encoding="utf-8"?>
<!-- Generator: Adobe Illustrator 26.4.1, SVG Export Plug-In . SVG Version: 6.00 Build 0)  -->
<svg version="1.1" id="Layer_1" xmlns="http://www.w3.org/2000/svg" xmlns:xlink="http://www.w3.org/1999/xlink" x="0px" y="0px"
	 viewBox="0 0 269.1 67.8" style="enable-background:new 0 0 269.1 67.8;" xml:space="preserve">
<style type="text/css">
	.st0{fill:#690F18;}
	.st1{fill:#666767;}
	.st2{fill:#020202;}
</style>
<g>
	<g>
		<g>
			<path class="st0" d="M27.4,57.5L27.4,57.5c-0.3,0-0.6-0.2-0.6-0.6c-0.2-13.2-8.2-15.6-10.3-16c-0.3-0.1-0.5-0.3-0.5-0.6l0,0
				c0-0.3,0.3-0.6,0.7-0.5c2.4,0.5,11,3.2,11.2,17.1C28,57.2,27.8,57.5,27.4,57.5z"/>
		</g>
		<g>
			<path class="st0" d="M19,38.5L19,38.5c-0.2,0.2-0.6,0.2-0.8,0c-1.1-1.1-3.7-4.4-3.8-8.9c0-1,0.1-2.1,0.4-3.1
				c0.1-0.4,0.2-0.7,0.3-1.1c0.2-0.5,0.4-1,0.6-1.5c0.2-0.4,0.4-0.8,0.6-1.2c0.4,0.1,0.7,0.2,1.1,0.3c-0.2,0.4-0.4,0.8-0.6,1.1
				c0,0.1-0.1,0.2-0.2,0.3c-0.2,0.4-0.3,0.8-0.5,1.1c-0.5,1.3-0.7,2.6-0.7,4c0.1,4.1,2.6,7.2,3.5,8.2C19.2,37.9,19.2,38.2,19,38.5z"
				/>
		</g>
		<g>
			<path class="st0" d="M30.1,44.5L30.1,44.5c-0.2-0.2-0.2-0.5,0-0.7c1.5-1.8,1.5-4.1,0.8-5.6c-0.9-2.1-2.8-3.4-4.9-3.4
				c-4.6,0-6.6-5-7.2-6.8c-0.1-0.3,0.1-0.6,0.4-0.7h0c0.3-0.1,0.6,0.1,0.7,0.4c0.5,1.5,2.3,6,6.1,6c2.5,0,4.9,1.6,5.9,4.1
				c1,2.3,0.6,4.8-1,6.7C30.8,44.7,30.4,44.7,30.1,44.5z"/>
		</g>
		<g>
			<path class="st0" d="M45.7,57.5L45.7,57.5c-0.3,0-0.6-0.2-0.6-0.5c-0.2-13-8.5-15.6-10.7-16c-0.3-0.1-0.5-0.3-0.5-0.6v0
				c0-0.3,0.3-0.5,0.7-0.5c2.4,0.5,11.4,3.5,11.6,17.1C46.3,57.2,46,57.5,45.7,57.5z"/>
		</g>
		<g>
			<path class="st0" d="M42.3,57.5c-5.2-5.2-7.7-5.3-9.1-4.8c-2.2,0.9-2.4,4.7-2.4,4.8l-1.1,0c0-0.2,0.2-4.6,3.1-5.8
				c2.5-1,6.5,1.2,11.1,5.8L42.3,57.5z"/>
		</g>
	</g>
	<g>
		<path class="st0" d="M21.3,25.1c0,0.3-0.3,0.5-0.6,0.5c0,0,0,0-0.1,0c-0.3,0-0.6-0.4-0.5-0.7c0-0.2,0-0.4,0-0.5c0,0,0,0,0,0
			c0-0.9-0.2-1.6-0.6-2.2c0,0,0,0,0,0c0,0,0,0,0,0c0,0,0,0,0,0c-0.1-0.1-0.2-0.2-0.2-0.2c-0.3-0.2-0.8-0.2-1,0.2
			c-0.1,0.1-0.1,0.2-0.2,0.4v0c0,0-0.1,0-0.1,0c-0.4,0-0.9-0.1-1.3-0.2c0.2-0.3,0.4-0.6,0.6-1c0.4-0.5,0.9-0.8,1.5-0.8
			c0.2,0,0.4,0,0.6,0.1h0c0.4,0.2,0.7,0.4,1,0.8c0.1,0.1,0.2,0.2,0.3,0.4C21.2,22.5,21.5,23.7,21.3,25.1z"/>
		<path class="st0" d="M20.2,24.4C20.2,24.4,20.1,24.4,20.2,24.4c0-0.9-0.2-1.7-0.6-2.2c0,0,0,0,0,0C20,22.8,20.2,23.5,20.2,24.4z"
			/>
	</g>
	<path class="st0" d="M26.7,18.2c-0.2,0.6-0.3,0.8-0.5,1.4l1.4,1.5c-0.3,0.5-0.6,1.1-1,1.5l-1.9-0.8c-0.5,0.5-0.6,0.5-1.1,1l0.5,2.1
		c-0.5,0.3-1,0.6-1.6,0.9l-1-1.2l-0.2-0.2c0-0.8-0.1-1.5-0.3-2.1c0,0,0.1,0,0.1,0c2.4-1.1,4-3.5,4-6.2c0-3.8-3.1-6.9-6.9-6.9
		s-6.9,3.1-6.9,6.9c0,2.8,1.6,5.2,4,6.3c0.1,0.1,0.2,0.1,0.4,0.2c0.1,0,0.2,0.1,0.2,0.1c0.1,0,0.2,0.1,0.4,0.1c0,0,0.1,0,0.1,0
		c0.2,0,0.3,0.1,0.5,0.1c0.4,0.1,0.8,0.1,1.2,0.1c0.3,0,0.7,0,1-0.1c0.3,0.4,0.5,0.8,0.5,1.3c0,0.1,0,0.3,0,0.4c0,0,0,0,0,0
		l-0.1,0.5l-0.1,0.6l-0.2,1c-0.3,0-0.6,0-0.9,0c-0.2,0-0.4,0-0.6,0c-0.1,0-0.2,0-0.3,0l-0.1-0.3l-0.4-1.8c-0.1,0-0.1,0-0.2,0
		c-0.2-0.1-0.4-0.1-0.5-0.1c-0.2,0-0.3-0.1-0.6-0.1c-0.1,0-0.1,0-0.2,0l-0.1,0.1l-0.5,0.6l-0.4,0.5l-0.4,0.5
		c-0.6-0.2-1.1-0.5-1.6-0.9l0.5-2.1c-0.5-0.5-0.6-0.5-1.1-1l-1.9,0.8c-0.4-0.5-0.7-1-1-1.5l1.4-1.5c-0.2-0.6-0.3-0.8-0.5-1.4l-2-0.2
		c-0.1-0.6-0.2-1.2-0.2-1.9l1.8-0.7c0.1-0.7,0.1-0.8,0.2-1.5l-1.6-1c0.2-0.6,0.4-1.2,0.7-1.8l1.8,0.2c0.4-0.6,0.4-0.7,0.8-1.2
		l-0.8-1.6c0.5-0.5,1-0.9,1.5-1.3l1.4,1C14,8,14.1,7.9,14.7,7.6l0-1.7c0.6-0.2,1.3-0.4,1.9-0.5l0.8,1.5h1.5l0.8-1.5
		c0.7,0.1,1.3,0.2,2,0.5l0,1.7c0.6,0.3,0.7,0.4,1.3,0.7l1.4-1c0.5,0.4,1,0.8,1.5,1.3L25,10.1c0.4,0.6,0.5,0.7,0.9,1.2l1.8-0.2
		c0.3,0.6,0.5,1.2,0.7,1.8l-1.5,1c0.1,0.7,0.1,0.8,0.2,1.5l1.8,0.7c0,0.6-0.1,1.3-0.2,1.9L26.7,18.2z"/>
</g>
<g>
	<path class="st1" d="M51.4,56.6v1.5h-1.4V47.8h1.5v7.5c0.9,1.3,2,2,3.5,2c1,0,1.7-0.2,2.1-0.6c0.5-0.4,0.7-1.1,0.7-1.9v-6.9h1.5v7
		c0,1.1-0.3,2-1,2.7c-0.7,0.7-1.7,1-3,1C53.7,58.5,52.4,57.8,51.4,56.6z"/>
	<path class="st1" d="M63.4,47.8h1.5v5l5.6-5h1.8l-2.8,2.5c1.1,0.3,1.8,0.7,2.3,1.3c0.4,0.6,0.6,1.4,0.6,2.3v4.2h-1.5V54
		c0-0.8-0.2-1.4-0.5-1.9c-0.3-0.4-1-0.7-1.8-0.9l-3.6,3.2v3.8h-1.5V47.8z"/>
	<path class="st1" d="M80.5,51.4c0-0.9-0.2-1.6-0.6-2c-0.4-0.4-1-0.6-1.9-0.6c-0.9,0-1.7,0.2-2.5,0.6V48c0.3-0.1,0.7-0.3,1.2-0.4
		c0.5-0.1,1-0.1,1.5-0.1c1.3,0,2.2,0.3,2.9,1c0.6,0.7,0.9,1.7,0.9,3v6.7h-1.5L80.5,51.4L80.5,51.4z"/>
	<path class="st1" d="M85.8,57.6v-1.3c0.9,0.6,2.1,1,3.5,1c1.4,0,2.4-0.4,3.2-1.1s1.1-1.8,1.1-3.2c0-1.4-0.4-2.5-1.1-3.2
		c-0.8-0.7-1.8-1.1-3.2-1.1c-1.4,0-2.5,0.3-3.4,1v-1.3c0.9-0.6,2.2-0.9,3.7-0.9c1.7,0,3.1,0.5,4.1,1.4c1,1,1.5,2.3,1.5,4.1
		c0,1.7-0.5,3.1-1.5,4c-1,1-2.4,1.4-4.1,1.4C87.9,58.5,86.7,58.2,85.8,57.6z"/>
	<path class="st1" d="M86.6,45h8.1v1.1h-8.1V45z"/>
	<path class="st1" d="M98.9,47.8h1.4v1.5c0.5-0.6,1.1-1.1,1.8-1.4c0.7-0.3,1.4-0.4,2.2-0.4c1.2,0,2.2,0.3,2.9,1c0.7,0.7,1,1.5,1,2.6
		v7.1h-1.5v-7c0-0.8-0.2-1.4-0.7-1.9c-0.5-0.4-1.1-0.7-2.1-0.7c-1.6,0-2.8,0.6-3.6,1.9v7.5h-1.5C98.9,58.2,98.9,47.8,98.9,47.8z"/>
	<path class="st1" d="M113.3,57.6c-0.9-0.6-1.3-1.4-1.3-2.4c0-0.6,0.2-1.1,0.5-1.6c0.3-0.4,0.8-0.8,1.3-0.9c-0.6-0.2-1-0.5-1.3-0.9
		c-0.3-0.4-0.5-0.9-0.5-1.5c0-0.8,0.3-1.5,0.8-2c0.6-0.5,1.3-0.8,2.4-0.8c0.3,0,0.6,0,0.9,0.1c0.3,0,0.6,0.1,0.7,0.1v1.2
		c-0.2-0.1-0.4-0.1-0.6-0.1c-0.3,0-0.5-0.1-0.7-0.1c-0.6,0-1.1,0.1-1.4,0.4s-0.5,0.7-0.5,1.2c0,0.5,0.2,1,0.6,1.2
		c0.4,0.3,0.9,0.5,1.6,0.5h1.2v1.2h-1.2c-0.7,0-1.2,0.2-1.6,0.5s-0.6,0.8-0.6,1.4c0,0.7,0.3,1.2,0.9,1.5c0.6,0.3,1.4,0.5,2.4,0.5
		c1.2,0,2.1-0.3,2.6-0.8c0.6-0.5,0.8-1.3,0.8-2.2v-6.5h1.5v6.5c0,0.7-0.1,1.4-0.5,2c-0.3,0.6-0.8,1.2-1.6,1.6s-1.7,0.6-2.9,0.6
		C115.3,58.5,114.2,58.2,113.3,57.6z"/>
	<path class="st1" d="M129.9,51.4c0-0.9-0.2-1.6-0.6-2c-0.4-0.4-1-0.6-1.9-0.6c-0.9,0-1.7,0.2-2.5,0.6V48c0.3-0.1,0.7-0.3,1.2-0.4
		c0.5-0.1,1-0.1,1.5-0.1c1.3,0,2.2,0.3,2.9,1c0.6,0.7,0.9,1.7,0.9,3v6.7h-1.5L129.9,51.4L129.9,51.4z"/>
	<path class="st1" d="M136.2,57.6c-0.7-0.6-1-1.4-1-2.4c0-1,0.4-1.9,1.1-2.5s1.7-0.9,3-0.9c1.3,0,2.6,0.3,3.7,0.8v-1.1
		c0-1-0.3-1.7-0.8-2.1c-0.5-0.4-1.4-0.7-2.5-0.7c-0.6,0-1.2,0.1-1.8,0.2c-0.6,0.1-1.1,0.3-1.5,0.5v-1.2c0.4-0.2,0.9-0.3,1.6-0.4
		c0.7-0.1,1.3-0.2,1.9-0.2c1.6,0,2.7,0.3,3.5,1.1c0.8,0.7,1.1,1.7,1.1,2.9v6.7h-1.5v-4.4c-1-0.5-2.2-0.8-3.5-0.8
		c-0.9,0-1.6,0.2-2.1,0.5c-0.4,0.3-0.7,0.9-0.7,1.6s0.2,1.2,0.6,1.6c0.4,0.3,1,0.5,1.9,0.5c0.5,0,0.9-0.1,1.3-0.2v1.2
		c-0.5,0.1-1,0.2-1.6,0.2C137.7,58.5,136.8,58.2,136.2,57.6z"/>
	<path class="st1" d="M140,45.7c-0.2-0.2-0.3-0.6-0.3-1.1v-0.9h1.4v0.7c0,0.2,0.1,0.4,0.1,0.5c0.1,0.1,0.3,0.1,0.5,0.1h4.5v1.1h-5.2
		C140.6,46.1,140.2,46,140,45.7z"/>
	<path class="st1" d="M149.5,57.6c-0.9-0.6-1.3-1.4-1.3-2.4c0-0.6,0.2-1.1,0.5-1.6c0.3-0.4,0.8-0.8,1.3-0.9c-0.6-0.2-1-0.5-1.3-0.9
		s-0.5-0.9-0.5-1.5c0-0.8,0.3-1.5,0.8-2c0.6-0.5,1.3-0.8,2.4-0.8c0.3,0,0.6,0,0.9,0.1c0.3,0,0.6,0.1,0.7,0.1v1.2
		c-0.2-0.1-0.4-0.1-0.6-0.1c-0.3,0-0.5-0.1-0.7-0.1c-0.6,0-1.1,0.1-1.4,0.4s-0.5,0.7-0.5,1.2c0,0.5,0.2,1,0.6,1.2
		c0.4,0.3,0.9,0.5,1.6,0.5h1.2v1.2h-1.2c-0.7,0-1.2,0.2-1.6,0.5s-0.6,0.8-0.6,1.4c0,0.7,0.3,1.2,0.9,1.5c0.6,0.3,1.4,0.5,2.4,0.5
		c1.2,0,2.1-0.3,2.6-0.8c0.6-0.5,0.8-1.3,0.8-2.2v-6.5h1.5v6.5c0,0.7-0.1,1.4-0.5,2c-0.3,0.6-0.8,1.2-1.6,1.6s-1.7,0.6-2.9,0.6
		C151.5,58.5,150.4,58.2,149.5,57.6z"/>
	<path class="st1" d="M162.6,57.7c-0.3-0.3-0.5-0.8-0.5-1.4v-8.5h1.5v8.2c0,0.4,0.1,0.6,0.2,0.8c0.1,0.1,0.4,0.2,0.8,0.2h0.7v1.3
		H164C163.4,58.2,162.9,58,162.6,57.7z"/>
	<path class="st1" d="M171,58c-0.7-0.3-1.2-0.8-1.6-1.4c-0.4-0.6-0.6-1.3-0.6-2v-0.8c0-0.4,0.1-0.8,0.3-1.2c0.2-0.4,0.5-0.8,0.8-1.3
		c0.3-0.3,0.5-0.6,0.6-0.9c0.1-0.2,0.2-0.5,0.2-0.7c0-0.3-0.1-0.5-0.2-0.6c-0.1-0.1-0.4-0.2-0.7-0.2h-1.1v-1.2h1.7
		c0.6,0,1,0.2,1.3,0.5c0.3,0.3,0.5,0.8,0.5,1.3c0,0.3-0.1,0.7-0.2,1c-0.1,0.3-0.4,0.7-0.7,1.1c-0.3,0.4-0.5,0.8-0.7,1.1
		c-0.1,0.3-0.2,0.6-0.2,0.9v1c0,0.8,0.3,1.5,0.8,1.9c0.5,0.5,1.2,0.7,2.2,0.7c1,0,1.7-0.3,2.3-0.8c0.6-0.5,0.9-1.3,0.9-2.3
		c0-1-0.2-1.7-0.6-2.3c-0.4-0.5-1-0.8-1.9-0.8v-0.9l2.2-2.8h1.7l-2.3,2.9c1.6,0.5,2.5,1.7,2.5,3.8c0,1.4-0.4,2.4-1.3,3.2
		c-0.9,0.8-2,1.1-3.4,1.1C172.4,58.5,171.7,58.3,171,58z"/>
	<path class="st1" d="M169.6,45h6.7v-2.1h1.4v3.2h-8.1L169.6,45L169.6,45z"/>
	<path class="st1" d="M182.8,57.6c-0.9-0.6-1.3-1.4-1.3-2.4c0-0.6,0.2-1.1,0.5-1.6c0.3-0.4,0.8-0.8,1.3-0.9c-0.6-0.2-1-0.5-1.3-0.9
		c-0.3-0.4-0.5-0.9-0.5-1.5c0-0.8,0.3-1.5,0.8-2c0.6-0.5,1.3-0.8,2.4-0.8c0.3,0,0.6,0,0.9,0.1c0.3,0,0.6,0.1,0.7,0.1v1.2
		c-0.2-0.1-0.4-0.1-0.6-0.1c-0.3,0-0.5-0.1-0.7-0.1c-0.6,0-1.1,0.1-1.4,0.4s-0.5,0.7-0.5,1.2c0,0.5,0.2,1,0.6,1.2
		c0.4,0.3,0.9,0.5,1.6,0.5h1.2v1.2h-1.2c-0.7,0-1.2,0.2-1.6,0.5s-0.6,0.8-0.6,1.4c0,0.7,0.3,1.2,0.9,1.5c0.6,0.3,1.4,0.5,2.4,0.5
		c1.2,0,2.1-0.3,2.6-0.8c0.6-0.5,0.8-1.3,0.8-2.2v-6.5h1.5v6.5c0,0.7-0.1,1.4-0.5,2c-0.3,0.6-0.8,1.2-1.6,1.6
		c-0.7,0.4-1.7,0.6-2.9,0.6C184.8,58.5,183.7,58.2,182.8,57.6z"/>
	<path class="st1" d="M195.1,49.1h1.5l2.7,7.9c1.4,0,2.4-0.4,3.1-1.1c0.7-0.7,1.1-1.8,1.1-3.1c0-1.3-0.3-2.3-0.8-3
		c-0.5-0.7-1.3-1-2.4-1c-0.5,0-0.9,0.1-1.4,0.2v-1.2c0.4-0.1,1-0.2,1.6-0.2c1.4,0,2.5,0.5,3.3,1.4c0.8,1,1.2,2.2,1.2,3.9
		c0,1.1-0.2,2.1-0.7,2.9c-0.5,0.8-1.1,1.4-1.9,1.9c-0.8,0.4-1.7,0.6-2.7,0.6h-1.5L195.1,49.1z"/>
	<path class="st1" d="M209.4,57.7c-0.3-0.3-0.5-0.8-0.5-1.4v-5.6c0-0.7,0.1-1.3,0.4-1.7c0.2-0.5,0.6-0.9,1-1.4
		c0.3-0.3,0.5-0.6,0.6-0.8c0.1-0.2,0.2-0.5,0.2-0.7c0-0.5-0.1-0.8-0.4-1c-0.2-0.2-0.7-0.3-1.3-0.3c-0.8,0-1.5,0.2-2.2,0.6V44
		c0.7-0.4,1.6-0.6,2.6-0.6c0.9,0,1.6,0.2,2.1,0.7c0.4,0.5,0.7,1.1,0.7,1.8c0,0.4-0.1,0.7-0.3,1s-0.4,0.6-0.8,1
		c-0.4,0.5-0.7,0.9-0.9,1.3c-0.2,0.4-0.3,0.9-0.3,1.5V56c0,0.4,0.1,0.6,0.2,0.8c0.1,0.1,0.4,0.2,0.8,0.2h0.7v1.3h-1.4
		C210.2,58.2,209.7,58,209.4,57.7z"/>
	<path class="st1" d="M215.9,47.8h1.5v5l5.6-5h1.8l-2.8,2.5c1.1,0.3,1.8,0.7,2.3,1.3c0.4,0.6,0.6,1.4,0.6,2.3v4.2h-1.5V54
		c0-0.8-0.2-1.4-0.5-1.9c-0.3-0.4-1-0.7-1.8-0.9l-3.6,3.2v3.8h-1.5L215.9,47.8L215.9,47.8z"/>
	<path class="st1" d="M230.4,56.6v1.5H229V47.8h1.5v7.5c0.9,1.3,2,2,3.5,2c1,0,1.7-0.2,2.1-0.6c0.5-0.4,0.7-1.1,0.7-1.9v-6.9h1.5v7
		c0,1.1-0.3,2-1,2.7c-0.7,0.7-1.7,1-3,1C232.8,58.5,231.5,57.8,230.4,56.6z"/>
	<path class="st1" d="M236.8,43h1.4v3.1h-1.4V43z"/>
</g>
<g>
	<path class="st2" d="M49.1,35.8v-2.4c1.3,0.9,3,1.4,5.2,1.4c1.9,0,3.4-0.5,4.5-1.5s1.6-2.5,1.6-4.4s-0.5-3.4-1.6-4.4
		s-2.6-1.5-4.5-1.5c-2.1,0-3.8,0.5-5.1,1.4v-2.4c1.4-0.9,3.3-1.3,5.7-1.3c2.7,0,4.7,0.7,6.3,2.2c1.5,1.5,2.3,3.5,2.3,6.1
		c0,2.6-0.8,4.7-2.3,6.1c-1.5,1.5-3.6,2.2-6.3,2.2C52.4,37.1,50.4,36.7,49.1,35.8z"/>
	<path class="st2" d="M50.1,16.6h12.7v2H50.1V16.6z"/>
	<path class="st2" d="M66.9,27c0-2,0.7-3.6,2-4.8c1.3-1.1,3.2-1.7,5.5-1.7c1.5,0,2.8,0.2,3.9,0.7l1.3-1.4h3.3l-2.5,2.9
		c1,1.1,1.5,2.5,1.5,4.3v9.7h-3v-9.8c0-1.3-0.4-2.3-1.2-3c-0.8-0.7-1.9-1-3.3-1c-1.4,0-2.5,0.3-3.3,1s-1.2,1.6-1.2,3v3
		c0.2-0.5,0.7-0.8,1.2-1.1c0.6-0.3,1.2-0.4,1.9-0.4h2.3v2.5h-2.6c-0.8,0-1.5,0.3-2.1,0.9c-0.6,0.6-0.8,1.2-0.8,2v3.1h-3L66.9,27
		L66.9,27z"/>
	<path class="st2" d="M85.5,35.8v-2.4c1.3,0.9,3,1.4,5.2,1.4c1.9,0,3.4-0.5,4.5-1.5s1.6-2.5,1.6-4.4s-0.5-3.4-1.6-4.4
		s-2.6-1.5-4.5-1.5c-2.1,0-3.8,0.5-5.1,1.4v-2.4c1.4-0.9,3.3-1.3,5.7-1.3c2.7,0,4.7,0.7,6.3,2.2c1.5,1.5,2.3,3.5,2.3,6.1
		c0,2.6-0.8,4.7-2.3,6.1c-1.5,1.5-3.6,2.2-6.3,2.2C88.8,37.1,86.9,36.7,85.5,35.8z"/>
	<path class="st2" d="M104.2,26.9l-1.5-2.4c1-1.3,2.2-2.3,3.6-3c1.3-0.7,2.9-1,4.7-1c2.3,0,4.2,0.5,5.4,1.6s1.9,2.6,1.9,4.5v10.1h-3
		v-9.9c0-1.4-0.4-2.4-1.1-3c-0.7-0.6-1.8-1-3.2-1c-1.1,0-2,0.2-2.8,0.5c-0.8,0.3-1.6,0.8-2.2,1.5l1.3,2v9.8h-3V26.9z"/>
	<path class="st2" d="M124.6,36.8c-1.1-0.2-2-0.6-2.6-1.1v-2.4c0.8,0.5,1.8,0.9,2.8,1.2s2,0.4,2.9,0.4c1.3,0,2.2-0.2,2.8-0.5
		c0.6-0.3,0.9-0.8,0.9-1.6c0-0.5-0.1-0.9-0.4-1.2c-0.3-0.3-0.7-0.6-1.2-0.8c-0.6-0.2-1.4-0.5-2.6-0.9c-1.7-0.5-3-1.2-3.8-1.9
		c-0.8-0.7-1.3-1.7-1.3-3c0-1.5,0.6-2.6,1.7-3.3c1.1-0.8,2.7-1.2,4.6-1.2c1,0,2,0.1,2.9,0.3s1.7,0.5,2.3,0.9v2.5
		c-0.7-0.4-1.4-0.7-2.3-1c-0.9-0.2-1.8-0.4-2.6-0.4c-2.3,0-3.5,0.7-3.5,2.1c0,0.5,0.2,1,0.5,1.3c0.3,0.3,0.8,0.6,1.3,0.8
		s1.4,0.5,2.7,0.9c1.2,0.4,2.2,0.8,2.9,1.2c0.7,0.4,1.2,0.9,1.5,1.5s0.4,1.3,0.4,2.2c0,1.3-0.5,2.3-1.6,3.1
		c-1.1,0.8-2.7,1.2-4.8,1.2C126.8,37.1,125.7,37,124.6,36.8z"/>
	<path class="st2" d="M139.9,36.8c-1.1-0.2-2-0.6-2.6-1.1v-2.4c0.8,0.5,1.8,0.9,2.8,1.2s2,0.4,2.9,0.4c1.3,0,2.2-0.2,2.8-0.5
		c0.6-0.3,0.9-0.8,0.9-1.6c0-0.5-0.1-0.9-0.4-1.2c-0.3-0.3-0.7-0.6-1.2-0.8c-0.6-0.2-1.4-0.5-2.6-0.9c-1.7-0.5-3-1.2-3.9-1.9
		c-0.8-0.7-1.3-1.7-1.3-3c0-1.5,0.6-2.6,1.7-3.3c1.1-0.8,2.6-1.2,4.6-1.2c1,0,2,0.1,2.9,0.3s1.7,0.5,2.3,0.9v2.5
		c-0.7-0.4-1.4-0.7-2.3-1c-0.9-0.2-1.8-0.4-2.6-0.4c-2.4,0-3.5,0.7-3.5,2.1c0,0.5,0.2,1,0.5,1.3c0.3,0.3,0.8,0.6,1.3,0.8
		s1.4,0.5,2.7,0.9c1.2,0.4,2.2,0.8,2.9,1.2c0.7,0.4,1.2,0.9,1.5,1.5s0.4,1.3,0.4,2.2c0,1.3-0.5,2.3-1.6,3.1
		c-1.1,0.8-2.7,1.2-4.8,1.2C142.1,37.1,141,37,139.9,36.8z"/>
	<path class="st2" d="M158.6,36.5c-1-0.4-1.8-1.1-2.6-1.9v2.1h-2.9V21h3v11.1c1.2,1.8,2.8,2.7,4.8,2.7c1.3,0,2.2-0.3,2.9-0.9
		c0.7-0.6,1-1.5,1-2.7V21h3v10.4c0,1.7-0.5,3.1-1.6,4.2s-2.6,1.6-4.5,1.6C160.6,37.1,159.6,36.9,158.6,36.5z"/>
	<path class="st2" d="M171.9,27c0-2,0.7-3.6,2-4.8c1.3-1.1,3.2-1.7,5.5-1.7c1.5,0,2.8,0.2,3.9,0.7l1.3-1.4h3.3l-2.5,2.9
		c1,1.1,1.5,2.5,1.5,4.3v9.7h-3v-9.8c0-1.3-0.4-2.3-1.2-3c-0.8-0.7-1.9-1-3.3-1c-1.4,0-2.5,0.3-3.3,1c-0.8,0.7-1.2,1.6-1.2,3v3
		c0.2-0.5,0.7-0.8,1.2-1.1c0.6-0.3,1.2-0.4,1.9-0.4h2.4v2.5h-2.6c-0.8,0-1.5,0.3-2.1,0.9c-0.6,0.6-0.8,1.2-0.8,2v3.1h-3L171.9,27
		L171.9,27z"/>
	<path class="st2" d="M196.6,26.5c0-1.2-0.3-2.2-0.8-2.8c-0.5-0.6-1.4-0.9-2.7-0.9c-1.3,0-2.4,0.3-3.5,0.8v-2.4
		c0.5-0.2,1.1-0.4,1.8-0.6c0.8-0.2,1.5-0.2,2.2-0.2c2,0,3.5,0.5,4.4,1.6s1.5,2.6,1.5,4.6v10h-3L196.6,26.5L196.6,26.5z"/>
	<path class="st2" d="M204.7,35.8c-1-0.9-1.5-2.1-1.5-3.7c0-1.6,0.6-2.8,1.7-3.8c1.1-0.9,2.7-1.4,4.7-1.4c1.9,0,3.7,0.4,5.2,1.1
		v-1.2c0-1.4-0.4-2.3-1.1-3c-0.7-0.6-2-0.9-3.7-0.9c-0.9,0-1.9,0.1-2.8,0.3c-0.9,0.2-1.7,0.4-2.4,0.7v-2.4c0.6-0.3,1.4-0.5,2.5-0.7
		c1.1-0.2,2.1-0.3,3.1-0.3c1.8,0,3.2,0.3,4.4,1l1.5-1.7h3.3l-3,3.3c0.7,1,1.1,2.2,1.1,3.6v10h-3v-6.3c-1.4-0.7-3.1-1.1-4.9-1.1
		c-1.3,0-2.2,0.2-2.8,0.7c-0.6,0.5-0.9,1.2-0.9,2.1c0,1.8,1.1,2.7,3.4,2.7c0.7,0,1.3-0.1,1.9-0.3v2.3c-0.7,0.2-1.6,0.3-2.6,0.3
		C207.1,37.1,205.7,36.7,204.7,35.8z"/>
	<path class="st2" d="M223.8,35.1c-1.3-1.3-2-3.3-2-5.9c0-1.8,0.2-3.3,0.7-4.6c0.5-1.3,1.2-2.3,2-3c0.9-0.7,1.8-1.1,2.9-1.1
		c1.5,0,2.5,0.6,3.1,1.8c0.3-0.6,0.8-1.1,1.5-1.4s1.4-0.4,2.2-0.4c1.4,0,2.4,0.4,3,1.3c0.7,0.9,1,2,1,3.5v11.4h-3V25.5
		c0-0.9-0.1-1.5-0.4-2c-0.3-0.4-0.8-0.6-1.4-0.6c-1.1,0-1.8,0.6-2.1,1.8h-1.8c-0.1-0.6-0.3-1.1-0.6-1.4c-0.3-0.3-0.7-0.5-1.2-0.5
		c-0.9,0-1.7,0.5-2.2,1.6s-0.9,2.7-0.9,4.7c0,1.9,0.4,3.3,1.2,4.2c0.8,0.9,2.1,1.3,3.8,1.3c0.8,0,1.4-0.1,2.1-0.3v2.3
		c-0.7,0.2-1.5,0.3-2.6,0.3C227,37.1,225.1,36.5,223.8,35.1z"/>
	<path class="st2" d="M244.6,36.8c-1.1-0.2-2-0.6-2.6-1.1v-2.4c0.8,0.5,1.8,0.9,2.8,1.2s2,0.4,2.9,0.4c1.3,0,2.2-0.2,2.8-0.5
		c0.6-0.3,0.9-0.8,0.9-1.6c0-0.5-0.1-0.9-0.4-1.2c-0.3-0.3-0.7-0.6-1.2-0.8c-0.6-0.2-1.4-0.5-2.6-0.9c-1.7-0.5-3-1.2-3.9-1.9
		c-0.8-0.7-1.3-1.7-1.3-3c0-1.5,0.6-2.6,1.7-3.3c1.1-0.8,2.6-1.2,4.6-1.2c1,0,2,0.1,2.9,0.3s1.7,0.5,2.3,0.9v2.5
		c-0.7-0.4-1.4-0.7-2.3-1c-0.9-0.2-1.8-0.4-2.6-0.4c-2.4,0-3.5,0.7-3.5,2.1c0,0.5,0.2,1,0.5,1.3c0.3,0.3,0.8,0.6,1.3,0.8
		s1.4,0.5,2.7,0.9c1.2,0.4,2.2,0.8,2.9,1.2c0.7,0.4,1.2,0.9,1.5,1.5s0.4,1.3,0.4,2.2c0,1.3-0.5,2.3-1.6,3.1
		c-1.1,0.8-2.7,1.2-4.8,1.2C246.8,37.1,245.7,37,244.6,36.8z"/>
	<path class="st2" d="M246.7,17c0-1.5,0.8-2.3,2.5-2.3h6.5v2h-5.3c-0.4,0-0.6,0.1-0.7,0.2s-0.2,0.4-0.2,0.7v1.1h-2.7L246.7,17
		L246.7,17z"/>
</g>
</svg>
